# xmcd
#
# Track frame offsets: 
#        150
#        18361
#        36451
#        51398
#        68169
#        85313
#        102846
#        118101
#        136513
#        150437
#
# Disc length: 2223 seconds
#
# Revision: 0
# Processed by: cddbd v1.5.2PL0 Copyright (c) Steve Scherf et al.
# Submitted via: ExactAudioCopy v1.2
#
DISCID=7d08ad0a
DTITLE=Willie May - New County Blues
DYEAR=2018
DGENRE=Blues
TTITLE0=Gypsy Eyes
TTITLE1=Plenty of Problems
TTITLE2=Lookin' for Jesus
TTITLE3=Get It Ready
TTITLE4=Thirty Days
TTITLE5=Wicked Ways
TTITLE6=Where Did We Go Wrong
TTITLE7=Don't Know Where
TTITLE8=Smile
TTITLE9=Stop Hurtin' Me
EXTD=
EXTT0=
EXTT1=
EXTT2=
EXTT3=
EXTT4=
EXTT5=
EXTT6=
EXTT7=
EXTT8=
EXTT9=
PLAYORDER=
